<svg width="64" height="64" viewBox="0 0 64 64" fill="none" xmlns="http://www.w3.org/2000/svg">
<g clip-path="url(#clip0)">
<path d="M32 7.94995C18.7375 7.94995 7.96251 18.7375 7.96251 32C7.96251 45.2625 18.7375 56.0374 32 56.0374C45.2625 56.0374 56.05 45.25 56.05 32C56.05 18.75 45.2625 7.94995 32 7.94995ZM32 53.825C19.9625 53.825 10.175 44.0375 10.175 32C10.175 19.9625 19.9625 10.175 32 10.175C44.0375 10.175 53.825 19.9625 53.825 32C53.825 44.0375 44.0375 53.825 32 53.825Z" fill="black"/>
<path d="M31.7625 61.7749C26.9 61.7374 22.0625 60.4874 17.7625 58.1499C11.275 54.6249 6.3625 48.8374 3.9125 41.8749C1.4875 34.9624 1.675 27.4499 4.45 20.6999C4.6875 20.1374 4.4125 19.4874 3.85 19.2499C3.2875 19.0124 2.6375 19.2874 2.4 19.8499C-0.574995 27.0999 -0.787495 35.1749 1.825 42.5999C4.45 50.0749 9.7375 56.2874 16.7125 60.0874C21.325 62.5999 26.5375 63.9499 31.75 63.9874C31.75 63.9874 31.75 63.9874 31.7625 63.9874C32.375 63.9874 32.8625 63.4999 32.875 62.8874C32.8625 62.2874 32.375 61.7874 31.7625 61.7749Z" fill="black"/>
<path d="M10.225 10.0625C9.775 9.65003 9.075 9.66253 8.6625 10.1125L8.6125 10.1625C8.2 10.6125 8.225 11.3125 8.6625 11.725C8.875 11.925 9.15 12.025 9.4125 12.025C9.7125 12.025 10 11.9125 10.225 11.675L10.275 11.625C10.6875 11.175 10.6625 10.475 10.225 10.0625Z" fill="black"/>
<path d="M43.9875 2.32495C43.9375 2.31245 43.9 2.28745 43.85 2.27495H43.8375C43.7 2.22495 43.5625 2.19995 43.425 2.19995C42.9625 2.19995 42.5625 2.47495 42.4 2.89995C42.35 3.02495 42.325 3.16245 42.325 3.31245C42.325 3.77495 42.6 4.17495 43.025 4.34995L43.1625 4.39995C43.3 4.44995 43.4375 4.48745 43.575 4.48745C44.025 4.48745 44.4375 4.21245 44.6 3.79995C44.7125 3.52495 44.7125 3.22495 44.6 2.94995C44.475 2.64995 44.2625 2.43745 43.9875 2.32495Z" fill="black"/>
<path d="M31.4625 0H31.3875C31.3625 0 31.3375 0 31.3125 0C31.025 0.0125 30.75 0.125 30.55 0.3375C30.35 0.55 30.2375 0.825 30.2375 1.1125C30.2375 1.125 30.2375 1.125 30.2375 1.1375C30.2375 1.425 30.3625 1.7 30.575 1.9C30.7875 2.1 31.0625 2.2125 31.35 2.2125C31.3625 2.2125 31.3625 2.2125 31.375 2.2125C31.425 2.2125 31.475 2.2125 31.525 2.2125C31.825 2.2125 32.1 2.0875 32.3 1.875C32.5125 1.6625 32.6125 1.3875 32.6125 1.0875C32.6125 0.8 32.4875 0.525 32.275 0.3125C32.05 0.1125 31.7625 0 31.4625 0Z" fill="black"/>
<path d="M19.4875 2.65015C19.3375 2.65015 19.1875 2.68765 19.0375 2.75015C19.0125 2.76265 18.9875 2.77515 18.95 2.78765C18.925 2.80015 18.9125 2.81265 18.8875 2.81265C18.325 3.06265 18.075 3.72515 18.325 4.27515C18.5 4.67515 18.9 4.93765 19.3375 4.93765C19.5 4.93765 19.65 4.90015 19.7875 4.83765C19.8375 4.81265 19.875 4.80015 19.925 4.77515C20.4875 4.52515 20.7375 3.87515 20.4875 3.31265C20.325 2.91265 19.925 2.65015 19.4875 2.65015Z" fill="black"/>
<path d="M53.3 53.2751C53.0125 53.2751 52.7375 53.3876 52.5375 53.5751C52.5 53.6126 52.475 53.6376 52.4375 53.6751C51.9875 54.1001 51.975 54.8001 52.3875 55.2376C52.6 55.4626 52.8875 55.5876 53.2 55.5876C53.4875 55.5876 53.75 55.4751 53.9625 55.2876L54.075 55.1751C54.3 54.9626 54.4125 54.6751 54.4125 54.3751C54.4125 54.0876 54.3 53.8126 54.1125 53.6126C53.8875 53.4001 53.6 53.2751 53.3 53.2751Z" fill="black"/>
<path d="M42.8875 59.8C42.75 59.8 42.625 59.825 42.5 59.875H42.4875C42.2125 59.975 41.9875 60.1876 41.8625 60.4501C41.7375 60.7251 41.725 61.025 41.8375 61.3C42 61.725 42.4125 62.0126 42.875 62.0126C43.0125 62.0126 43.1375 61.9875 43.2625 61.9375H43.275C43.7 61.775 43.9875 61.3626 43.9875 60.9001C43.9875 60.7626 43.9625 60.6375 43.9125 60.5C43.7625 60.0875 43.3375 59.8 42.8875 59.8Z" fill="black"/>
<path d="M54.5875 9.32515C54.55 9.28765 54.525 9.26265 54.4875 9.22515C54.275 9.02515 54 8.90015 53.7125 8.90015C53.4125 8.90015 53.1375 9.01265 52.925 9.22515C52.725 9.43765 52.6125 9.71265 52.6 10.0001C52.6 10.3001 52.7125 10.5876 52.925 10.8001L53.025 10.9001C53.2375 11.1126 53.5125 11.2251 53.8125 11.2251C54.1125 11.2251 54.3875 11.1126 54.6 10.9001C55.0375 10.4626 55.0375 9.76265 54.6 9.33765L54.5875 9.32515Z" fill="black"/>
<path d="M61.625 19.925C61.6125 19.8875 61.5875 19.85 61.575 19.8C61.4 19.3875 61 19.1125 60.55 19.1125C60.4 19.1125 60.2625 19.1376 60.125 19.2001C59.7125 19.3751 59.4375 19.775 59.4375 20.225C59.4375 20.3626 59.4625 20.5126 59.525 20.6376L59.5375 20.675C59.55 20.7125 59.5625 20.7375 59.575 20.775C59.75 21.2 60.15 21.4625 60.6 21.4625C60.7375 21.4625 60.8875 21.4376 61.0125 21.3876C61.575 21.1626 61.85 20.5125 61.625 19.9375V19.925Z" fill="black"/>
<path d="M62.9 31.1875C62.2875 31.1875 61.7875 31.675 61.7875 32.2875C61.7875 32.3375 61.7875 32.3875 61.7875 32.4375C61.775 33.05 62.275 33.55 62.8875 33.5625H62.9C63.5 33.5625 64 33.075 64.0125 32.4625V32.3V32.2875C64 31.675 63.5 31.1875 62.9 31.1875Z" fill="black"/>
<path d="M60.775 43.2874C60.6375 43.2249 60.4875 43.2 60.3375 43.2C59.9 43.2 59.5 43.4624 59.325 43.8624L59.3125 43.8875C59.3 43.925 59.2875 43.9625 59.2625 44C59.1375 44.275 59.1375 44.5749 59.2375 44.8499C59.35 45.1249 59.55 45.35 59.825 45.4625C59.9625 45.525 60.1125 45.5625 60.275 45.5625C60.7125 45.5625 61.1125 45.3 61.2875 44.9C61.3125 44.85 61.325 44.8 61.35 44.75C61.4125 44.6125 61.4375 44.4625 61.4375 44.3125C61.4375 43.8625 61.175 43.4624 60.775 43.2874Z" fill="black"/>
<path d="M43.9 60.5249C43.6875 59.9499 43.05 59.6624 42.475 59.8749L42.4125 59.8999C41.8375 60.1124 41.55 60.7499 41.7625 61.3248C41.925 61.7748 42.35 62.0498 42.8 62.0498C42.925 62.0498 43.0625 62.0248 43.1875 61.9748L43.2625 61.9498C43.8375 61.7373 44.125 61.0874 43.9 60.5249Z" fill="black"/>
<path d="M43.4875 41.9127L33.0625 31.5377L33.1125 17.0126C33.1125 16.4001 32.625 15.9001 32.0125 15.9001C31.4 15.9001 30.9 16.4001 30.9 17.0001L30.85 32.0002C30.85 32.3002 30.9625 32.5752 31.175 32.7877L41.925 43.4877C42.1375 43.7002 42.425 43.8127 42.7125 43.8127C43 43.8127 43.2875 43.7002 43.5 43.4877C43.925 43.0502 43.925 42.3502 43.4875 41.9127Z" fill="black"/>
<path d="M38.525 21.85C38.0125 21.525 37.325 21.6625 36.9875 22.1875C36.65 22.7 36.8 23.3875 37.325 23.725C40.15 25.55 41.85 28.6375 41.85 32C41.85 32.9625 41.7125 33.9 41.4375 34.8125C41.2625 35.4 41.6 36.0125 42.1875 36.1875C42.2875 36.225 42.4 36.2375 42.5 36.2375C42.975 36.2375 43.425 35.925 43.5625 35.45C43.9 34.3375 44.0625 33.175 44.0625 32C44.0625 27.875 41.9875 24.0875 38.525 21.85Z" fill="black"/>
<path d="M35.3875 42.4748C35.2625 41.8748 34.675 41.4998 34.075 41.6248C33.4 41.7748 32.7 41.8498 32 41.8498C26.575 41.8498 22.1625 37.4373 22.1625 32.0123C22.1625 28.5623 23.925 25.4248 26.8625 23.6123C27.3875 23.2873 27.55 22.6123 27.225 22.0873C26.9 21.5623 26.225 21.3998 25.7 21.7248C22.0875 23.9373 19.9375 27.7873 19.9375 32.0123C19.9375 38.6623 25.35 44.0623 31.9875 44.0623C32.8375 44.0623 33.7 43.9748 34.525 43.7998C35.1375 43.6623 35.525 43.0623 35.3875 42.4748Z" fill="black"/>
</g>
<defs>
<clipPath id="clip0">
<rect width="64" height="64" fill="white"/>
</clipPath>
</defs>
</svg>
