<svg width="31" height="31" viewBox="0 0 31 31" fill="none" xmlns="http://www.w3.org/2000/svg">
<path fill-rule="evenodd" clip-rule="evenodd" d="M15.5 18.2C16.2456 18.2 16.85 18.8044 16.85 19.55V29C16.85 29.7456 16.2456 30.35 15.5 30.35C14.7544 30.35 14.15 29.7456 14.15 29V19.55C14.15 18.8044 14.7544 18.2 15.5 18.2Z" fill="#F2F2F2"/>
<path fill-rule="evenodd" clip-rule="evenodd" d="M15.5 0.649994C16.2456 0.649994 16.85 1.25441 16.85 1.99999V11.45C16.85 12.1956 16.2456 12.8 15.5 12.8C14.7544 12.8 14.15 12.1956 14.15 11.45V1.99999C14.15 1.25441 14.7544 0.649994 15.5 0.649994Z" fill="#F2F2F2"/>
<path fill-rule="evenodd" clip-rule="evenodd" d="M9.14541 22.6454C9.67261 22.1182 10.5274 22.1182 11.0546 22.6454L15.5 27.0908L19.9454 22.6454C20.4726 22.1182 21.3274 22.1182 21.8546 22.6454C22.3818 23.1726 22.3818 24.0274 21.8546 24.5546L16.4546 29.9546C15.9274 30.4818 15.0726 30.4818 14.5454 29.9546L9.14541 24.5546C8.6182 24.0274 8.6182 23.1726 9.14541 22.6454Z" fill="#F2F2F2"/>
<path fill-rule="evenodd" clip-rule="evenodd" d="M14.5454 1.0454C15.0726 0.518192 15.9274 0.518192 16.4546 1.0454L21.8546 6.4454C22.3818 6.97261 22.3818 7.82738 21.8546 8.35459C21.3274 8.8818 20.4726 8.8818 19.9454 8.35459L15.5 3.90918L11.0546 8.35459C10.5274 8.8818 9.67261 8.8818 9.14541 8.35459C8.6182 7.82738 8.6182 6.97261 9.14541 6.4454L14.5454 1.0454Z" fill="#F2F2F2"/>
<path fill-rule="evenodd" clip-rule="evenodd" d="M0.650002 15.5C0.650002 14.7544 1.25442 14.15 2 14.15H29C29.7456 14.15 30.35 14.7544 30.35 15.5C30.35 16.2456 29.7456 16.85 29 16.85H2C1.25442 16.85 0.650002 16.2456 0.650002 15.5Z" fill="#F2F2F2"/>
</svg>
