<svg width="32" height="32" viewBox="0 0 32 32" fill="none" xmlns="http://www.w3.org/2000/svg">
<g clip-path="url(#clip0)">
<path d="M1.99998 2.17733C-0.514686 4.78933 -1.91778e-05 7.56399 -1.91778e-05 15.9933C-1.91778e-05 22.9933 -1.22135 30.0107 5.17065 31.6627C7.16665 32.176 24.852 32.176 26.8453 31.66C29.5066 30.9733 31.672 28.8147 31.968 25.0507C32.0093 24.5253 32.0093 7.47066 31.9666 6.93466C31.652 2.92533 29.184 0.614658 25.932 0.146657C25.1866 0.0386574 25.0373 0.00665735 21.2133 -9.3244e-06C7.64931 0.00665735 4.67598 -0.597343 1.99998 2.17733Z" fill="url(#paint0_linear)"/>
<path d="M15.9974 4.18532C11.156 4.18532 6.5587 3.75466 4.8027 8.26132C4.07737 10.1227 4.1827 12.54 4.1827 16.0013C4.1827 19.0386 4.08537 21.8933 4.8027 23.74C6.5547 28.2493 11.1894 27.8173 15.9947 27.8173C20.6307 27.8173 25.4107 28.3 27.188 23.74C27.9147 21.86 27.808 19.4786 27.808 16.0013C27.808 11.3853 28.0627 8.40532 25.824 6.16799C23.5574 3.90132 20.492 4.18532 15.992 4.18532H15.9974ZM14.9387 6.31465C25.0374 6.29865 26.3227 5.17599 25.6134 20.772C25.3614 26.288 21.1614 25.6826 15.9987 25.6826C6.58537 25.6826 6.3147 25.4133 6.3147 15.996C6.3147 6.46932 7.06137 6.31999 14.9387 6.31199V6.31465ZM22.304 8.27599C21.5214 8.27599 20.8867 8.91065 20.8867 9.69332C20.8867 10.476 21.5214 11.1107 22.304 11.1107C23.0867 11.1107 23.7214 10.476 23.7214 9.69332C23.7214 8.91065 23.0867 8.27599 22.304 8.27599ZM15.9974 9.93332C12.6467 9.93332 9.9307 12.6507 9.9307 16.0013C9.9307 19.352 12.6467 22.068 15.9974 22.068C19.348 22.068 22.0627 19.352 22.0627 16.0013C22.0627 12.6507 19.348 9.93332 15.9974 9.93332ZM15.9974 12.0627C21.204 12.0627 21.2107 19.94 15.9974 19.94C10.792 19.94 10.784 12.0627 15.9974 12.0627Z" fill="white"/>
</g>
<defs>
<linearGradient id="paint0_linear" x1="2.06134" y1="29.9561" x2="31.802" y2="4.21598" gradientUnits="userSpaceOnUse">
<stop stop-color="#FFDD55"/>
<stop offset="0.5" stop-color="#FF543E"/>
<stop offset="1" stop-color="#C837AB"/>
</linearGradient>
<clipPath id="clip0">
<rect width="32" height="32" fill="white"/>
</clipPath>
</defs>
</svg>
