<svg width="49" height="49" viewBox="0 0 49 49" fill="none" xmlns="http://www.w3.org/2000/svg">
<g clip-path="url(#clip0)">
<path d="M28.0573 5.23816H15.0622C14.6207 5.23816 14.2595 5.59941 14.2595 6.04095C14.2595 6.48248 14.6207 6.84373 15.0622 6.84373H28.0573C28.4989 6.84373 28.8601 6.48248 28.8601 6.04095C28.8601 5.59941 28.4989 5.23816 28.0573 5.23816Z" fill="#2E599F"/>
<path d="M32.0111 2.07721C31.5695 2.07721 31.2083 2.43846 31.2083 2.87999V9.13168C31.2083 9.57322 31.5695 9.93447 32.0111 9.93447C32.4526 9.93447 32.8139 9.57322 32.8139 9.13168V2.87999C32.8139 2.43846 32.4526 2.07721 32.0111 2.07721Z" fill="#2E599F"/>
<path d="M11.239 2.07721C10.7975 2.07721 10.4362 2.43846 10.4362 2.87999V9.13168C10.4362 9.57322 10.7975 9.93447 11.239 9.93447C11.6805 9.93447 12.0418 9.57322 12.0418 9.13168V2.87999C12.0418 2.43846 11.6805 2.07721 11.239 2.07721Z" fill="#2E599F"/>
<path d="M37.2592 15.0723H5.98073C5.5392 15.0723 5.17795 15.4335 5.17795 15.8751C5.17795 16.3166 5.5392 16.6778 5.98073 16.6778H37.2492C37.7008 16.6778 38.062 16.3166 38.062 15.8751C38.062 15.4335 37.7008 15.0723 37.2592 15.0723Z" fill="#2E599F"/>
<path d="M29.9539 21.3942H5.98073C5.5392 21.3942 5.17795 21.7555 5.17795 22.197C5.17795 22.6385 5.5392 22.9998 5.98073 22.9998H29.9539C30.4055 22.9998 30.7567 22.6385 30.7567 22.197C30.7567 21.7555 30.3954 21.3942 29.9539 21.3942Z" fill="#2E599F"/>
<path d="M19.5277 27.6158H5.98073C5.5392 27.6158 5.17795 27.9771 5.17795 28.4186C5.17795 28.8602 5.5392 29.2214 5.98073 29.2214H19.5277C19.9693 29.2214 20.3305 28.8602 20.3305 28.4186C20.3305 27.9771 19.9693 27.6158 19.5277 27.6158Z" fill="#2E599F"/>
<path d="M47.7959 31.2986C46.7723 29.3519 45.1969 27.7664 43.2501 26.7529V6.00086C43.2601 5.58943 42.9189 5.23821 42.5075 5.23821C42.4975 5.23821 42.4774 5.23821 42.4674 5.23821H35.1721C34.7305 5.23821 34.3693 5.59947 34.3693 6.041C34.3693 6.48253 34.7305 6.84378 35.1721 6.84378H41.6445V26.0705C40.5608 25.7092 39.4268 25.5186 38.2829 25.5286C32.3824 25.5286 27.5857 30.3052 27.5857 36.2157C27.5857 37.3496 27.7664 38.4836 28.1377 39.5573H1.60559V6.84378H7.02439C7.46592 6.84378 7.82718 6.48253 7.82718 6.041C7.82718 5.59947 7.46592 5.23821 7.02439 5.23821H0.772697C0.361269 5.22818 0.0200849 5.53926 1.52858e-05 5.95068C1.52858e-05 5.97075 1.52858e-05 5.98079 1.52858e-05 6.00086V40.4002C-0.0100195 40.8116 0.311095 41.1528 0.722522 41.1628C0.742592 41.1628 0.752627 41.1628 0.772697 41.1628H28.82C31.5395 46.401 38.0019 48.4381 43.2401 45.7187C48.4782 42.9992 50.5153 36.5368 47.7959 31.2986ZM38.2929 45.3373C33.2655 45.3373 29.1913 41.2632 29.1913 36.2358C29.1913 31.2083 33.2655 27.1342 38.2929 27.1342C43.3203 27.1342 47.3945 31.2083 47.3945 36.2358C47.3945 41.2532 43.3203 45.3273 38.2929 45.3373Z" fill="#2E599F"/>
<path d="M43.1196 35.9447H39.1358V30.4958C39.1358 30.0542 38.7745 29.693 38.333 29.693C37.8915 29.693 37.5302 30.0542 37.5302 30.4958V36.7475C37.5102 37.1689 37.8413 37.5302 38.2728 37.5402C38.2828 37.5402 38.2929 37.5402 38.3029 37.5402H43.1196C43.5611 37.5402 43.9224 37.179 43.9224 36.7374C43.9224 36.2959 43.5611 35.9447 43.1196 35.9447Z" fill="#2E599F"/>
</g>
<defs>
<clipPath id="clip0">
<rect width="49" height="49" fill="white"/>
</clipPath>
</defs>
</svg>
