<svg width="49" height="49" viewBox="0 0 49 49" fill="none" xmlns="http://www.w3.org/2000/svg">
<path d="M33.9363 6.93846H30.2518V6.57479C30.2518 4.52675 28.5865 2.86151 26.5385 2.86151H19.7818C19.2459 2.86151 18.8057 3.30175 18.8057 3.83768V6.92889H12.8051C5.75176 6.93846 0 12.6902 0 19.7531V40.8748C0 43.7746 2.3543 46.1289 5.2541 46.1289H26.3758C33.4387 46.1289 39.1904 40.3771 39.1904 33.3142V12.1926C39.1904 9.29276 36.8361 6.93846 33.9363 6.93846ZM20.7676 4.82343H26.548C27.5146 4.82343 28.309 5.60819 28.309 6.58436V6.94803H20.7676V4.82343ZM37.2381 33.3142C37.2381 39.3053 32.3668 44.1766 26.3758 44.1766H5.2541C3.43574 44.1766 1.95234 42.6932 1.95234 40.8748V19.7531C1.95234 13.7621 6.82363 8.89081 12.8146 8.89081H33.9363C35.7547 8.89081 37.2381 10.3742 37.2381 12.1926V33.3142Z" fill="#2E599F"/>
<path d="M48.0238 9.64691C47.4879 9.64691 47.0476 10.0871 47.0476 10.6231V14.0301H45.8322C45.2963 14.0301 44.856 14.4703 44.856 15.0063C44.856 15.5422 45.2963 15.9825 45.8322 15.9825H48.0238C48.5598 15.9825 49 15.5422 49 15.0063V10.6231C49 10.0871 48.5598 9.64691 48.0238 9.64691Z" fill="#2E599F"/>
<path d="M42.3869 14.0301H41.8605C41.3246 14.0301 40.8844 14.4703 40.8844 15.0063C40.8844 15.5422 41.3246 15.9824 41.8605 15.9824H42.3869C42.9228 15.9824 43.3631 15.5422 43.3631 15.0063C43.3631 14.4703 42.9324 14.0301 42.3869 14.0301Z" fill="#2E599F"/>
<path d="M19.6478 12.2596C11.8002 12.2596 5.42636 18.643 5.42636 26.4811C5.42636 34.3192 11.8098 40.7025 19.6478 40.7025C27.4859 40.7025 33.8693 34.3192 33.8693 26.4811C33.8693 18.643 27.4955 12.2596 19.6478 12.2596ZM19.6478 38.7502C12.8816 38.7502 7.3787 33.2473 7.3787 26.4811C7.3787 19.7149 12.8816 14.2119 19.6478 14.2119C26.4141 14.2119 31.917 19.7149 31.917 26.4811C31.917 33.2473 26.4141 38.7502 19.6478 38.7502Z" fill="#2E599F"/>
<path d="M19.4947 24.9306H17.8391L18.0975 21.3322H22.3945C22.8061 21.3322 23.007 20.9015 23.007 20.4613C23.007 20.0306 22.8061 19.5904 22.3945 19.5904H16.882C16.6045 19.5904 16.4705 19.8297 16.4322 20.2412L16.0016 25.2943C15.9824 25.4283 15.9633 25.6101 15.9633 25.7441C15.9633 26.2131 16.1451 26.5097 16.7959 26.5097H19.4852C20.8633 26.5097 21.6959 27.2754 21.6959 28.8449V29.199C21.6959 30.7972 20.8633 31.5341 19.466 31.5341C18.2602 31.5341 17.2936 30.9216 17.2936 29.8593C17.2936 29.4095 17.1117 29.0841 16.2887 29.0841C15.6953 29.0841 15.3221 29.2851 15.3221 29.9933C15.3221 31.716 16.8055 33.2759 19.5043 33.2759C21.8108 33.2759 23.6674 32.1658 23.6674 29.1894V28.8353C23.677 25.9738 21.8586 24.9306 19.4947 24.9306Z" fill="#2E599F"/>
</svg>
